<svg xmlns="http://www.w3.org/2000/svg" width="9" height="11" viewBox="0 0 9 11" fill="none">
                    <path d="M6.37392 9.99234C6.37392 10.0794 6.33589 10.1665 6.27606 10.2317C6.2108 10.2916 6.12368 10.3296 6.03666 10.3296H2.63752C2.54506 10.3296 2.45807 10.2916 2.39281 10.2317C2.33298 10.1665 2.29495 10.0794 2.29495 9.99234C2.29495 9.89988 2.33298 9.81289 2.39281 9.74763C2.45807 9.6878 2.54506 9.64977 2.63752 9.64977H6.03666C6.12368 9.64977 6.2108 9.6878 6.27606 9.74763C6.33589 9.81289 6.37392 9.89988 6.37392 9.99234ZM8.07615 4.55371C8.07615 5.11933 7.94565 5.67951 7.70091 6.1853C7.45074 6.69653 7.09182 7.14258 6.64585 7.49065C6.55883 7.55591 6.49351 7.63746 6.44456 7.72992C6.40105 7.82781 6.37392 7.93118 6.37392 8.03451V8.29011C6.37392 8.46959 6.30315 8.64356 6.17263 8.76865C6.04754 8.89917 5.87357 8.96994 5.69409 8.96994H2.97478C2.7953 8.96994 2.62133 8.89917 2.49624 8.76865C2.36572 8.64356 2.29495 8.46959 2.29495 8.29011V8.03451C2.29495 7.93118 2.27326 7.82782 2.22431 7.73536C2.1808 7.64291 2.11004 7.56136 2.02846 7.49609C1.5825 7.14802 1.22358 6.70742 0.973403 6.20163C0.728664 5.69584 0.598037 5.13566 0.598037 4.57004C0.581721 2.54688 2.21885 0.86095 4.24202 0.812003C4.74238 0.801125 5.23726 0.888133 5.70498 1.07305C6.16726 1.25252 6.59149 1.52444 6.945 1.87251C7.30395 2.22058 7.58678 2.63936 7.78257 3.10164C7.97292 3.55849 8.07615 4.05336 8.07615 4.55371ZM7.39632 4.55371C7.39632 4.14038 7.31476 3.73795 7.15161 3.36269C6.99389 2.98742 6.76546 2.64487 6.47178 2.36206C6.17809 2.07382 5.83553 1.85072 5.45482 1.70388C5.07412 1.5516 4.66625 1.48095 4.25835 1.49183C2.60501 1.5299 1.26699 2.91126 1.27786 4.57004C1.27786 5.02689 1.38124 5.48384 1.5879 5.89717C1.78913 6.31594 2.08286 6.67487 2.44725 6.95768C2.61585 7.0882 2.74636 7.2513 2.83881 7.43621C2.92583 7.62112 2.97478 7.82785 2.97478 8.03451V8.29011H3.99718V6.39204L2.73551 5.13024C2.67025 5.06498 2.63221 4.98343 2.63221 4.89097C2.63221 4.79852 2.67025 4.71697 2.73551 4.6517C2.80078 4.58644 2.88232 4.5484 2.97478 4.5484C3.06724 4.5484 3.15422 4.58644 3.21405 4.6517L4.33444 5.77209L5.45482 4.6517C5.48746 4.61907 5.52006 4.5918 5.56357 4.57549C5.60708 4.55917 5.65058 4.5484 5.69409 4.5484C5.7376 4.5484 5.7811 4.55917 5.82461 4.57549C5.86812 4.5918 5.90073 4.61907 5.93336 4.6517C5.96599 4.68434 5.99326 4.71694 6.00957 4.76045C6.02589 4.80396 6.03666 4.84746 6.03666 4.89097C6.03666 4.93448 6.02589 4.97798 6.00957 5.02149C5.99326 5.065 5.96599 5.09761 5.93336 5.13024L4.67701 6.39204V8.29011H5.69409V8.03451C5.69409 7.82785 5.74304 7.62112 5.8355 7.43621C5.92796 7.24586 6.05846 7.08276 6.22162 6.95768C6.59145 6.67487 6.88518 6.30506 7.08641 5.89173C7.28764 5.47295 7.39632 5.016 7.39632 4.55371Z" fill="#FFDB56"/>
                </svg>