<svg xmlns="http://www.w3.org/2000/svg" width="11" height="9" viewBox="0 0 11 9" fill="none">
                    <path d="M2.95572 3.13523L1.23171 4.57097L2.95572 6.00671C2.98835 6.03934 3.02107 6.07208 3.04282 6.11015C3.06457 6.15366 3.07536 6.19716 3.08079 6.24067C3.08623 6.28418 3.08092 6.33313 3.07004 6.37663C3.05372 6.4147 3.03191 6.45819 3.00471 6.49082C2.97752 6.52889 2.93948 6.55604 2.90141 6.57779C2.8579 6.59955 2.8144 6.61046 2.77089 6.6159C2.72738 6.6159 2.67843 6.61045 2.63492 6.59957C2.59685 6.58325 2.55336 6.56156 2.52073 6.52893L0.481248 4.83202C0.443178 4.79939 0.410456 4.76133 0.388701 4.71238C0.372386 4.66887 0.356171 4.61992 0.356171 4.57097C0.356171 4.52203 0.372386 4.47307 0.388701 4.42412C0.410456 4.38061 0.443178 4.34256 0.481248 4.30993L2.52073 2.60757C2.59143 2.55318 2.67843 2.52605 2.77089 2.53149C2.85791 2.54237 2.93944 2.58586 2.99927 2.65657C3.05909 2.72183 3.08636 2.81426 3.07548 2.90128C3.07004 2.99373 3.02642 3.07541 2.95572 3.13523ZM10.4338 4.30993L8.39434 2.60757C8.36171 2.58038 8.31822 2.5587 8.28015 2.54782C8.23664 2.5315 8.1877 2.52605 8.14419 2.53149C8.10068 2.53693 8.05718 2.54784 8.01911 2.5696C7.98104 2.59135 7.943 2.6185 7.91581 2.65657C7.85598 2.72183 7.82871 2.81426 7.83959 2.90128C7.84503 2.99373 7.88866 3.07541 7.95936 3.13523L9.68336 4.57097L7.95936 6.00671C7.92129 6.03934 7.89401 6.07208 7.87226 6.11015C7.8505 6.15366 7.83972 6.19716 7.83428 6.24067C7.82884 6.28418 7.83416 6.33313 7.84504 6.37663C7.86135 6.4147 7.88317 6.45819 7.91036 6.49082C7.93756 6.52889 7.97559 6.55604 8.01366 6.57779C8.05717 6.59955 8.10068 6.61046 8.14419 6.6159C8.1877 6.6159 8.23664 6.61045 8.28015 6.59957C8.31822 6.58325 8.36171 6.56156 8.39434 6.52893L10.4338 4.83202C10.4719 4.79939 10.5046 4.76133 10.5264 4.71238C10.5427 4.66887 10.5536 4.61992 10.5536 4.57097C10.5536 4.52203 10.5427 4.47307 10.5264 4.42412C10.5046 4.38061 10.4719 4.34256 10.4338 4.30993ZM6.93138 0.51378C6.89331 0.497464 6.84437 0.492004 6.80086 0.492004C6.75735 0.492004 6.71385 0.502914 6.67578 0.524668C6.63228 0.540984 6.59423 0.568119 6.56704 0.60075C6.53441 0.633382 6.51258 0.671431 6.49627 0.71494L3.77695 8.19305C3.76064 8.23656 3.75518 8.28006 3.76062 8.32357C3.76062 8.37252 3.77153 8.41602 3.78784 8.45409C3.8096 8.49216 3.83687 8.53034 3.8695 8.56297C3.90213 8.59017 3.94018 8.61729 3.98369 8.62817C4.02176 8.64448 4.05981 8.64994 4.09788 8.64994C4.16858 8.64994 4.23391 8.62813 4.29373 8.59006C4.34812 8.54655 4.39161 8.49227 4.41881 8.42701L7.13812 0.948897C7.15444 0.905388 7.15989 0.861884 7.15445 0.818375C7.15445 0.774866 7.14355 0.725924 7.12723 0.687853C7.10548 0.649783 7.07821 0.611606 7.04557 0.578975C7.01294 0.551781 6.97489 0.530096 6.93138 0.51378Z" fill="#9F9FF8"/>
                </svg>