<svg xmlns="http://www.w3.org/2000/svg" width="12" height="10" viewBox="0 0 12 10" fill="none">
                    <path d="M11.1561 2.91217L6.05474 0.192862C6.00579 0.165669 5.95139 0.154755 5.897 0.154755C5.84261 0.154755 5.78821 0.165669 5.73926 0.192862L0.637891 2.91217C0.583505 2.93937 0.539868 2.98287 0.507237 3.03725C0.474605 3.09164 0.458374 3.1515 0.458374 3.21133C0.458374 3.27115 0.474605 3.33101 0.507237 3.3854C0.539868 3.43978 0.583505 3.48328 0.637891 3.51048L1.81803 4.14131V6.19712C1.81803 6.36572 1.87776 6.52349 1.99197 6.64857C2.54671 7.26858 3.79225 8.30738 5.897 8.30738C6.59314 8.31826 7.28385 8.18764 7.93648 7.93746V9.32978C7.93648 9.42223 7.97465 9.50378 8.03447 9.56905C8.09974 9.63431 8.18672 9.66704 8.27374 9.66704C8.3662 9.66704 8.45306 9.63431 8.51832 9.56905C8.57815 9.50378 8.61631 9.42223 8.61631 9.32978V7.61122C9.05684 7.35561 9.45939 7.02928 9.80203 6.64857C9.91624 6.52349 9.97597 6.36572 9.97597 6.19712V4.14131L11.1561 3.51048C11.2105 3.48328 11.2541 3.43978 11.2868 3.3854C11.3194 3.33101 11.3356 3.27115 11.3356 3.21133C11.3356 3.1515 11.3194 3.09164 11.2868 3.03725C11.2541 2.98287 11.2105 2.93937 11.1561 2.91217ZM5.897 7.62755C4.05874 7.62755 2.97646 6.73011 2.49786 6.19712V4.50034L5.73926 6.22979C5.78821 6.25698 5.84261 6.2679 5.897 6.2679C5.95139 6.2679 6.00579 6.25698 6.05474 6.22979L7.93648 5.22903V7.19788C7.4035 7.44806 6.72367 7.62755 5.897 7.62755ZM9.29614 6.19712C9.09491 6.42011 8.86649 6.62683 8.61631 6.80087V4.86469L9.29614 4.50034V6.19712ZM8.44768 4.18486L8.43679 4.17942L6.06005 2.91217C5.97847 2.86867 5.88603 2.86321 5.79901 2.8904C5.71743 2.91759 5.6468 2.97744 5.60329 3.05358C5.55978 3.13516 5.54901 3.22217 5.57621 3.30918C5.6034 3.3962 5.65768 3.46697 5.73926 3.51048L7.7243 4.57098L5.897 5.54452L1.51901 3.21133L5.897 0.878134L10.275 3.21133L8.44768 4.18486Z" fill="#92BFFF"/>
                </svg>