<svg xmlns="http://www.w3.org/2000/svg" width="20" height="20" viewBox="0 0 20 20" fill="currentColor" class="icon max-md:hidden"><path d="M6.83 4.00C6.38 4.00 6.01 4.01 5.70 4.04C5.31 4.07 5.04 4.12 4.82 4.20L4.62 4.29C4.18 4.51 3.81 4.85 3.56 5.27L3.46 5.45C3.33 5.70 3.25 6.01 3.21 6.53C3.17 7.05 3.17 7.72 3.17 8.66V11.33C3.17 12.27 3.17 12.94 3.21 13.46C3.25 13.98 3.33 14.29 3.46 14.54L3.56 14.72C3.81 15.14 4.18 15.48 4.62 15.70L4.82 15.79C5.04 15.87 5.31 15.92 5.70 15.95C6.01 15.98 6.38 15.99 6.83 15.99L6.83 4.00ZM18.16 11.33C18.16 12.25 18.17 12.98 18.12 13.57C18.07 14.09 17.99 14.55 17.81 14.96L17.73 15.14C17.39 15.8 16.88 16.35 16.26 16.74L15.98 16.89C15.52 17.13 15.01 17.23 14.41 17.28C13.82 17.33 13.09 17.33 12.17 17.33H7.83C6.91 17.33 6.18 17.33 5.59 17.28C5.07 17.23 4.61 17.15 4.20 16.97L4.02 16.89C3.36 16.55 2.81 16.04 2.42 15.42L2.27 15.14C2.03 14.68 1.93 14.17 1.88 13.57C1.83 12.98 1.83 12.25 1.83 11.33V8.66C1.83 7.74 1.83 7.01 1.88 6.42C1.93 5.82 2.03 5.31 2.27 4.85L2.42 4.57C2.81 3.95 3.36 3.44 4.02 3.10L4.20 3.02C4.61 2.84 5.07 2.76 5.59 2.71C6.18 2.66 6.91 2.66 7.83 2.66H12.17C13.09 2.66 13.82 2.66 14.41 2.71C15.01 2.76 15.52 2.86 15.98 3.10L16.26 3.25C16.88 3.64 17.39 4.19 17.73 4.85L17.81 5.03C17.99 5.44 18.07 5.90 18.12 6.42C18.17 7.01 18.16 7.74 18.16 8.66V11.33ZM8.16 15.99H12.17C13.11 15.99 13.78 15.99 14.30 15.95C14.82 15.91 15.13 15.83 15.38 15.70L15.56 15.60C15.98 15.35 16.32 14.98 16.54 14.54L16.63 14.34C16.71 14.12 16.76 13.85 16.79 13.46C16.83 12.94 16.84 12.27 16.84 11.33V8.66C16.84 7.72 16.83 7.05 16.79 6.53C16.76 6.14 16.71 5.87 16.63 5.65L16.54 5.45C16.32 5.01 15.98 4.64 15.56 4.39L15.38 4.29C15.13 4.16 14.82 4.08 14.30 4.04C13.78 4.00 13.11 4.00 12.17 4.00H8.16C8.16 4.00 8.17 4.00 8.17 4.00L8.16 15.99Z"/></svg>