<svg xmlns="http://www.w3.org/2000/svg" width="16" height="16" viewBox="0 0 8 8" fill="none" class="icon">
                    <path d="M4.43092 0.790161C3.72934 0.790161 3.04945 0.996882 2.46752 1.38846C1.88559 1.77461 1.43424 2.32386 1.1623 2.97106C0.895812 3.61825 0.825179 4.33072 0.961145 5.01598C1.10255 5.70125 1.43419 6.33217 1.9291 6.82709C2.42402 7.322 3.05494 7.65364 3.74021 7.79505C4.42547 7.93101 5.13794 7.86038 5.78514 7.59389C6.43233 7.32196 6.98159 6.8706 7.36773 6.28867C7.75931 5.70674 7.96603 5.02685 7.96603 4.32527C7.96603 3.38982 7.59081 2.48696 6.9273 1.82889C6.26923 1.16538 5.36637 0.790161 4.43092 0.790161ZM7.41128 4.05334H6.05707C6.00812 3.08526 5.70896 2.1661 5.20317 1.43733C5.79054 1.59505 6.32354 1.93225 6.71512 2.39997C7.11214 2.86769 7.35145 3.44421 7.41128 4.05334ZM4.43092 7.31107C3.7946 6.6258 3.40847 5.64685 3.34864 4.5972H5.51321C5.45338 5.64685 5.06724 6.6258 4.43092 7.31107ZM3.34864 4.05334C3.40847 3.00368 3.7946 2.02473 4.43092 1.33947C5.06724 2.02473 5.45338 3.00368 5.51321 4.05334H3.34864ZM3.65868 1.43733C3.15289 2.1661 2.85373 3.08526 2.80478 4.05334H1.45057C1.51039 3.44421 1.74971 2.86769 2.14673 2.39997C2.53831 1.93225 3.07131 1.59505 3.65868 1.43733ZM1.45057 4.5972H2.80478C2.85373 5.56527 3.15289 6.48443 3.65868 7.21321C3.07131 7.05549 2.53831 6.71828 2.14673 6.25056C1.74971 5.78284 1.51039 5.20632 1.45057 4.5972ZM5.20317 7.21321C5.70896 6.48443 6.00812 5.56527 6.05707 4.5972H7.41128C7.35145 5.20632 7.11214 5.78284 6.71512 6.25056C6.32354 6.71828 5.79054 7.05549 5.20317 7.21321Z" fill="currentColor"/>
                </svg>