<svg xmlns="http://www.w3.org/2000/svg" width="8" height="9" viewBox="0 0 8 9" fill="none">
                    <path d="M7.37698 2.62915L5.00037 0.252541C4.96773 0.219909 4.92968 0.192642 4.88618 0.176326C4.8481 0.16001 4.80447 0.149112 4.76096 0.15455H0.681996C0.497083 0.15455 0.328544 0.225311 0.198017 0.350399C0.0729284 0.480926 -0.00314331 0.649465 -0.00314331 0.834378V8.31249C-0.00314331 8.49196 0.0729284 8.66063 0.198017 8.79115C0.328544 8.91624 0.497083 8.987 0.681996 8.987H6.79514C6.98005 8.987 7.14859 8.91624 7.27912 8.79115C7.40421 8.66063 7.48028 8.49196 7.48028 8.31249V2.87386C7.48028 2.82491 7.46951 2.78141 7.45319 2.74334C7.43687 2.69983 7.40961 2.66178 7.37698 2.62915ZM5.09822 1.31305L6.31647 2.53129H5.09822V1.31305ZM6.79514 8.31249H0.681996V0.834378H4.4184V2.87386C4.4184 2.96088 4.45643 3.048 4.51625 3.11326C4.58152 3.17309 4.66851 3.21112 4.76096 3.21112H6.79514V8.31249ZM5.43548 4.90804C5.43548 5.00049 5.40275 5.08748 5.33749 5.15275C5.27223 5.21257 5.19068 5.25061 5.09822 5.25061H2.37891C2.28645 5.25061 2.20491 5.21257 2.13964 5.15275C2.07438 5.08748 2.04165 5.00049 2.04165 4.90804C2.04165 4.82102 2.07438 4.7339 2.13964 4.66863C2.20491 4.60881 2.28645 4.57078 2.37891 4.57078H5.09822C5.19068 4.57078 5.27223 4.60881 5.33749 4.66863C5.40275 4.7339 5.43548 4.82102 5.43548 4.90804ZM5.43548 6.26769C5.43548 6.36015 5.40275 6.44714 5.33749 6.5124C5.27223 6.57223 5.19068 6.61026 5.09822 6.61026H2.37891C2.28645 6.61026 2.20491 6.57223 2.13964 6.5124C2.07438 6.44714 2.04165 6.36015 2.04165 6.26769C2.04165 6.18067 2.07438 6.09355 2.13964 6.02829C2.20491 5.96847 2.28645 5.93043 2.37891 5.93043H5.09822C5.19068 5.93043 5.27223 5.96847 5.33749 6.02829C5.40275 6.09355 5.43548 6.18067 5.43548 6.26769Z" fill="#FFB55B"/>
                </svg>