<svg xmlns="http://www.w3.org/2000/svg" width="14" height="18" viewBox="0 0 7 9" fill="none" class="icon">
                    <path d="M5.55402 7.86038C5.55402 7.93109 5.52688 8.00184 5.47249 8.05079C5.42355 8.10518 5.35279 8.13232 5.28209 8.13232H2.56278C2.49207 8.13232 2.42132 8.10518 2.37237 8.05079C2.31799 8.00184 2.29085 7.93109 2.29085 7.86038C2.29085 7.78968 2.31799 7.71893 2.37237 7.66998C2.42132 7.61559 2.49207 7.58845 2.56278 7.58845H5.28209C5.35279 7.58845 5.42355 7.61559 5.47249 7.66998C5.52688 7.71893 5.55402 7.78968 5.55402 7.86038ZM6.91368 3.50949C6.91368 3.96089 6.81032 4.41225 6.61453 4.82015C6.41874 5.22804 6.12502 5.58164 5.77151 5.86445C5.70081 5.9134 5.65197 5.97858 5.6139 6.05472C5.57583 6.13087 5.55402 6.21255 5.55402 6.29412V6.50073C5.55402 6.64757 5.49417 6.78352 5.39628 6.88685C5.29295 6.98475 5.157 7.04459 5.01016 7.04459H2.83471C2.68786 7.04459 2.55192 6.98475 2.44859 6.88685C2.35069 6.78352 2.29085 6.64757 2.29085 6.50073V6.29412C2.29085 6.21255 2.26904 6.13087 2.23641 6.05472C2.19834 5.98402 2.14406 5.91884 2.0788 5.86445C1.72529 5.58708 1.43701 5.23349 1.23578 4.83103C1.03455 4.42314 0.931189 3.97722 0.931189 3.52582C0.920312 1.90511 2.23108 0.556311 3.85179 0.518241C4.24881 0.507364 4.64578 0.578002 5.0156 0.724845C5.39087 0.871688 5.7281 1.08933 6.01091 1.3667C6.29916 1.64951 6.52213 1.98129 6.67985 2.34568C6.83213 2.7155 6.91368 3.11247 6.91368 3.50949ZM6.36981 3.50949C6.36981 3.18317 6.3045 2.86229 6.17941 2.55773C6.04888 2.2586 5.86396 1.98669 5.6301 1.75826C5.39624 1.52984 5.12432 1.35038 4.81975 1.23073C4.51519 1.11108 4.18887 1.05666 3.86255 1.0621C2.53552 1.09474 1.46961 2.19879 1.47505 3.52037C1.47505 3.8902 1.56205 4.25457 1.72521 4.58632C1.88837 4.91808 2.12224 5.2118 2.41592 5.43478C2.54645 5.53811 2.64982 5.66861 2.72596 5.81546C2.79666 5.96774 2.83471 6.13097 2.83471 6.29412V6.50073H3.6505V4.98333L2.6443 3.97182C2.58992 3.92287 2.56278 3.85212 2.56278 3.78142C2.56278 3.71071 2.58992 3.63996 2.6443 3.59101C2.69325 3.53662 2.76401 3.50949 2.83471 3.50949C2.90541 3.50949 2.97617 3.53662 3.02511 3.59101L3.92243 4.48302L4.81975 3.59101C4.84151 3.56382 4.87422 3.54214 4.90686 3.53126C4.93949 3.51494 4.97209 3.50949 5.01016 3.50949C5.04823 3.50949 5.08083 3.51494 5.11346 3.53126C5.14609 3.54214 5.17881 3.56382 5.20056 3.59101C5.22776 3.61277 5.24944 3.64548 5.26031 3.67811C5.27663 3.71075 5.28209 3.74335 5.28209 3.78142C5.28209 3.81949 5.27663 3.85209 5.26031 3.88472C5.24944 3.91735 5.22776 3.95007 5.20056 3.97182L4.19436 4.98333V6.50073H5.01016V6.29412C5.01016 6.13097 5.04821 5.96774 5.12435 5.81546C5.19505 5.66861 5.30386 5.53811 5.43439 5.43478C5.72807 5.20636 5.96194 4.91263 6.1251 4.58088C6.28826 4.24912 6.36981 3.87931 6.36981 3.50949Z" fill="currentColor"/>
                </svg>